<?xml version="1.0" encoding="utf-8"?>
<!-- Generator: Adobe Illustrator 23.0.1, SVG Export Plug-In . SVG Version: 6.00 Build 0)  -->
<svg version="1.1" id="Layer_1" xmlns="http://www.w3.org/2000/svg" xmlns:xlink="http://www.w3.org/1999/xlink" x="0px" y="0px"
	 viewBox="0 0 100 100" style="enable-background:new 0 0 100 100;" xml:space="preserve">
<path d="M90,16H74.24c-0.89-3.44-4.02-6-7.74-6c-1.1,0-2,0.9-2,2s0.9,2,2,2c2.21,0,4,1.79,4,4s-1.79,4-4,4c-1.1,0-2,0.9-2,2
	s0.9,2,2,2c3.72,0,6.85-2.56,7.74-6H88v12H12V20h20c1.1,0,2-0.9,2-2s-0.9-2-2-2h-1.94c0.69-1.19,1.97-2,3.44-2c2.21,0,4,1.79,4,4
	s-1.79,4-4,4c-1.1,0-2,0.9-2,2s0.9,2,2,2c4.41,0,8-3.59,8-8s-3.59-8-8-8c-3.72,0-6.85,2.56-7.74,6H10c-1.1,0-2,0.9-2,2v16v54
	c0,1.1,0.9,2,2,2h80c1.1,0,2-0.9,2-2V34V18C92,16.9,91.1,16,90,16z M88,86H12V36h76V86z M48.5,18c0-2.21-1.79-4-4-4
	c-1.1,0-2-0.9-2-2s0.9-2,2-2c4.41,0,8,3.59,8,8s-3.59,8-8,8c-1.1,0-2-0.9-2-2s0.9-2,2-2C46.71,22,48.5,20.21,48.5,18z M59.5,18
	c0-2.21-1.79-4-4-4c-1.1,0-2-0.9-2-2s0.9-2,2-2c4.41,0,8,3.59,8,8s-3.59,8-8,8c-1.1,0-2-0.9-2-2s0.9-2,2-2
	C57.71,22,59.5,20.21,59.5,18z M27,58c4.41,0,8-3.59,8-8s-3.59-8-8-8s-8,3.59-8,8S22.59,58,27,58z M27,46c2.21,0,4,1.79,4,4
	c0,2.21-1.79,4-4,4s-4-1.79-4-4C23,47.79,24.79,46,27,46z M27,80c4.41,0,8-3.59,8-8s-3.59-8-8-8s-8,3.59-8,8S22.59,80,27,80z M27,68
	c2.21,0,4,1.79,4,4s-1.79,4-4,4s-4-1.79-4-4S24.79,68,27,68z M50,58c4.41,0,8-3.59,8-8s-3.59-8-8-8s-8,3.59-8,8S45.59,58,50,58z
	 M50,46c2.21,0,4,1.79,4,4c0,2.21-1.79,4-4,4c-2.21,0-4-1.79-4-4C46,47.79,47.79,46,50,46z M50,80c4.41,0,8-3.59,8-8s-3.59-8-8-8
	s-8,3.59-8,8S45.59,80,50,80z M50,68c2.21,0,4,1.79,4,4s-1.79,4-4,4c-2.21,0-4-1.79-4-4S47.79,68,50,68z M73,58c4.41,0,8-3.59,8-8
	s-3.59-8-8-8s-8,3.59-8,8S68.59,58,73,58z M73,46c2.21,0,4,1.79,4,4c0,2.21-1.79,4-4,4s-4-1.79-4-4C69,47.79,70.79,46,73,46z
	 M78.66,69.17L75.83,72l2.83,2.83c0.78,0.78,0.78,2.05,0,2.83c-0.39,0.39-0.9,0.59-1.41,0.59s-1.02-0.2-1.41-0.59L73,74.83
	l-2.83,2.83c-0.39,0.39-0.9,0.59-1.41,0.59s-1.02-0.2-1.41-0.59c-0.78-0.78-0.78-2.05,0-2.83L70.17,72l-2.83-2.83
	c-0.78-0.78-0.78-2.05,0-2.83s2.05-0.78,2.83,0L73,69.17l2.83-2.83c0.78-0.78,2.05-0.78,2.83,0S79.44,68.39,78.66,69.17z"/>
</svg>
