<svg class="icon" style="width: 1em; height: 1em;vertical-align: middle;fill: currentColor;overflow: hidden;" viewBox="0 0 1024 1024" version="1.1" xmlns="http://www.w3.org/2000/svg"><path d="M511.913993 0C230.498908 0 0 230.498908 0 511.913993s230.498908 511.913993 511.913993 511.913993 511.913993-230.498908 511.913993-511.913993S793.501092 0 511.913993 0zM511.913993 981.340501C251.656644 981.340501 42.659499 772.343356 42.659499 511.913993S251.656644 42.659499 511.913993 42.659499s469.254494 208.997144 469.254494 469.254494S772.343356 981.340501 511.913993 981.340501zM213.297497 810.702503l426.594994-170.637998 170.637998-426.594994-426.594994 170.637998L213.297497 810.702503zM733.812196 290.187804l-127.978498 315.817907-315.817907 127.978498 127.978498-315.817907L733.812196 290.187804zM511.913993 511.913993m-34.058794 0a19.8 19.8 0 1 0 68.117588 0 19.8 19.8 0 1 0-68.117588 0Z" /></svg>